<?xml version="1.0" encoding="UTF-8" standalone="no"?>
<svg
   xmlns:dc="http://purl.org/dc/elements/1.1/"
   xmlns:cc="http://creativecommons.org/ns#"
   xmlns:rdf="http://www.w3.org/1999/02/22-rdf-syntax-ns#"
   xmlns:svg="http://www.w3.org/2000/svg"
   xmlns="http://www.w3.org/2000/svg"
   viewBox="0 0 794.66669 794.66669"
   height="794.66669"
   width="794.66669"
   xml:space="preserve"
   id="svg2"
   version="1.1"><metadata
     id="metadata8"><rdf:RDF><cc:Work
         rdf:about=""><dc:format>image/svg+xml</dc:format><dc:type
           rdf:resource="http://purl.org/dc/dcmitype/StillImage" /></cc:Work></rdf:RDF></metadata><defs
     id="defs6" /><g
     transform="matrix(1.3333333,0,0,-1.3333333,0,794.66667)"
     id="g10"><g
       transform="scale(0.1)"
       id="g12"><path
         id="path14"
         style="fill:#ffffff;fill-opacity:1;fill-rule:evenodd;stroke:none"
         d="M 0,3.07031 H 5952.76 V 5955.83 H 0 V 3.07031" /><path
         id="path16"
         style="fill:#231f20;fill-opacity:1;fill-rule:evenodd;stroke:none"
         d="m 4834.82,3696.87 c 3.07,-1.35 8.93,-3.07 11.19,-3.96 9.43,-3.71 17.29,-8.84 23.9,-16.62 15.03,-17.7 15.02,-37.45 14.09,-58.81 11.63,-10.73 31.24,-21.61 42.89,-32.6 20.99,-19.75 31.24,-30.81 38.25,-59.81 4.11,-17 2.65,-37.44 0.69,-55.45 9.08,-9.1 12.79,-21.82 12.34,-34.98 -1.29,-37.41 -1.87,-74.84 -4.29,-112.25 0.94,-0.43 1.85,-0.85 2.67,-1.28 19.13,-9.91 31.12,-24.49 32.77,-46.53 0.98,-13.15 -6.6,-31.4 -9.27,-44.07 36.63,-2.26 58.42,-19.65 54.3,-59.93 -5.11,-49.87 -40.8,-95.25 -80.4,-123.79 -25.06,-18.04 -58.91,-38.33 -66.13,-70.68 -0.89,-3.93 -2.27,-7.87 -3.53,-11.77 0.21,-1.12 0.4,-2.25 0.57,-3.38 7.7,-8.69 13.97,-18.55 17.12,-29.61 19.93,-5.17 30.22,-21.42 31.31,-43.84 1.71,-34.85 -9.89,-97.74 -23.41,-135.14 0.98,-0.6 1.97,-1.2 2.92,-1.82 19.23,-12.38 33.16,-29 31.65,-53.12 -0.49,-7.84 -3.68,-15.12 -7.74,-21.73 -2.21,-3.58 -6.57,-8.84 -9.73,-13.23 4.92,-2.88 12.5,-6.71 15.77,-9.2 14.34,-10.95 20.73,-26.22 22.37,-43.89 4.19,-44.92 -42.42,-90.09 -74.62,-115.85 -15.12,-12.12 -32.79,-21.53 -49.36,-31.51 -9.82,-5.92 -32.79,-18.56 -39.97,-26.43 -2.05,-2.24 -9.38,-8.57 -6.95,-12.04 15.97,-22.79 20.41,-46.73 7.51,-70.66 9.7,-43.6 5.39,-89.66 -9.11,-131.7 -18.74,-54.28 -44.13,-105.92 -67.52,-158.27 -37.35,-83.65 -61.4,-185.35 -128.9,-250.99 -28.75,-27.96 -55.93,-47.43 -92.1,-64.82 -10.55,-5.08 -21.27,-9.79 -32.11,-14.19 -2.61,-52.79 -31.36,-111.23 -62.26,-154.8 15.16,-14.71 22.61,-32.73 17.15,-53.92 -3.34,-12.9 -10.36,-17.09 -16.97,-24.79 3.43,-3.82 10.5,-10.67 11.84,-12.25 12.04,-14.15 15.38,-30.37 13.75,-48.64 -5.65,-62.88 -146.09,-120.77 -199.65,-134.07 -14.08,-3.49 -16.47,-4.69 -17.23,-19.52 -2.27,-44.33 4.34,-75.81 -43.33,-99.3 -8.52,-4.2 -17.18,-8.08 -26.09,-11.35 -8.12,-50.23 -45.31,-96.74 -93.94,-112.74 -9.8,-3.23 -19.88,-4.9 -30.05,-5.88 4.59,-11.62 5.74,-23.85 3.86,-36.62 -1.67,-11.39 -5.61,-21.134 -12.84,-30.114 -3.94,-4.899 -9.27,-9.317 -12.82,-14.211 -2.14,-2.945 -2.85,-5.578 -2.85,-9.215 0,-40.465 27.75,-78.297 3.53,-120.074 -23.01,-39.684 -77.61,-65.508 -117.18,-85.977 -10.63,-5.504 -23.25,-6.625 -35.05,-6.738 -5.19,-0.051 -19.06,0.734 -27.7,0.07 l 5.26,0.012 -65.28,-55.402 C 3669.45,600.023 3561,495.289 3441.11,404.098 c -36.2,-27.516 -58.17,-45.586 -106.24,-32.063 -22.12,6.223 -44.37,12.039 -66.73,17.383 -80.23,-68.734 -162.13,-135.539 -245.98,-199.813 l -58.45,-44.8 -57.45,46.058 c -81.61,65.442 -161.38,133.125 -240.24,201.836 -24.04,-5.722 -47.93,-12.332 -71.34,-20.207 -43.9,-14.769 -56.34,0.442 -89.82,23.77 -127.01,88.445 -236.31,197.613 -354.5,296.789 l -55.51,46.59 c -32.3,14.488 -70.32,34.16 -93.77,58.011 l -384.98,391.488 56.69,11.41 c 6.28,1.26 12.57,2.46 18.87,3.59 l -294.99,370.87 24.77,0.91 c 18.64,0.69 37.29,1.51 55.94,2.06 -23.72,62.13 -52.79,121.81 -89.36,177.54 l -6.22,9.48 c -32.16,13.3 -61.98,30.61 -87.86,54.19 -70.89,64.58 -78.25,158.55 -115.11,241.08 -24.52,54.89 -57.08,106.57 -76.76,163.56 -14.83,42.96 -20.34,89.9 -9.49,134.45 l 9.88,40.58 c -19.64,32.18 -37.5,65.32 -53.61,99.65 l -27.13,57.75 59.56,-13.28 c -9.85,45.23 -21.76,90.02 -34.82,134.42 -33.17,112.8 -73.382,224.48 -120.862,332.08 l -27.68,62.72 65.535,-20.16 c 22.875,-7.05 45.537,-14.84 67.917,-23.35 -18.5,39.56 -33.304,83.71 -42.593,124.59 -40.152,176.56 6.442,377.6 105.763,527.2 l 15.06,22.69 c -9.79,159.55 -15.83,319.35 -17.06,479.2 l -0.57,77.02 c 43.49,-2.97 84.87,4.81 127.75,12.83 142.01,26.6 265.65,87.07 399.53,148.59 213.44,98.09 420.36,209.49 628.44,318.26 47.71,24.95 95.41,49.92 143.2,74.71 l -358.72,320.4 662.14,64.89 266.12,615.02 266.12,-615.02 662.15,-64.89 -352.14,-314.5 c 86.24,-45.21 171.98,-91.37 257.83,-137.28 172.87,-92.46 345.94,-185.04 524.88,-265.34 136.18,-61.11 288.18,-123.31 436.78,-143.15 l 84.22,-11.24 -2.77,-84.92 c -5.02,-153.48 -6.09,-307.05 -10.93,-460.52 2.61,-6.85 5.21,-13.7 8.25,-20.36 z M 2826.33,419.809 c 45.9,-39.164 92.21,-77.864 139.11,-115.813 48.33,37.406 95.99,75.672 143.05,114.664 -49.45,6.125 -99.29,9.43 -149.11,9.145 -44.25,-0.25 -88.91,-3.149 -133.05,-7.996" /><path
         id="path18"
         style="fill:#f0c716;fill-opacity:1;fill-rule:evenodd;stroke:none"
         d="m 1530.61,3965.57 c 268.94,105.15 530.55,234.44 785.43,369.81 63.94,33.96 127.58,68.42 191.03,103.26 l 57.41,262.09 -68.5,61.17 c -334.03,-170.61 -687.15,-361.53 -960.44,-480.47 -139.2,-60.59 -262.46,-96.74 -348.03,-106.12 1.47,-247.65 15.68,-485.98 33.14,-705.26 -29.87,61.28 -54.87,124.49 -76.48,183.38 -10.84,176.16 -18.98,352.5 -20.33,529.14 l -0.36,47.51 c 48.53,3.08 128.98,16.84 195.24,37.87 110.2,35 231.74,86.79 313.6,124.41 213.26,98 421.87,210.23 629.88,318.97 60.78,31.78 121.94,63.8 183.48,95.5 l -339.42,303.15 609.46,59.73 244.71,565.55 244.72,-565.55 609.46,-59.73 -332.68,-297.13 c 99.7,-51.78 198.66,-105.1 297.7,-158.06 173.09,-92.58 347.7,-185.92 526.83,-266.3 136.04,-61.04 297.02,-125.79 445.45,-145.61 l 56.15,-7.49 -1.85,-56.62 c -4.67,-142.85 -5.94,-285.7 -9.99,-428.5 -7.19,8.88 -16.32,15.48 -25.33,22.86 -11.07,9.07 -23.1,17.62 -36.3,17.93 2.6,111.17 3.81,229.87 9.04,389.76 -350.39,46.78 -855.95,351.85 -1311.7,587.37 l -75.54,-67.46 57.45,-262.35 c 47.29,-25.27 94.6,-50.47 141.97,-75.53 148.7,-78.67 298.21,-156.43 449.9,-229.18 127.4,-61.11 259.54,-121.15 393.19,-167.22 l 44.64,-15.39 -2.52,-47.15 C 4419.08,3493.96 4379.21,3078 4268.68,2681.35 4067.46,1959.23 3676.6,1372.96 3168.86,840.449 c -26.43,3.18 -52.9,5.742 -79.47,7.633 551.7,570.148 925.48,1155.688 1118.97,1850.068 104.35,374.49 146.91,775.23 170.13,1209.11 -261.13,90.03 -610.57,271.49 -947.03,450.69 l 56.88,-259.68 -527.91,312.61 -527.91,-312.61 56.8,259.28 c -309.01,-168.45 -627.62,-329.76 -935.91,-450.29 32.08,-424.96 56.42,-840.78 161.78,-1217.4 193.7,-692.41 625.52,-1357.95 1138.95,-1842.856 -27.41,-2.137 -54.73,-4.922 -82,-8.254 -511.23,495.56 -927.64,1156.48 -1117.25,1834.24 -15.86,56.69 -29.92,114.03 -42.44,171.85 l 0.14,0.31 15.46,35.48 -21.96,-5.75 c -69.63,336.35 -89.49,688.3 -115.12,1027.66 l -3.48,46.17 z M 2771.77,425.465 c 78.96,-67.902 144.9,-122.551 193.25,-161.324 66.94,51.328 132.88,104.519 198.02,159.293 26.46,-4.336 52.78,-9.442 78.92,-15.18 C 3164.01,341.629 3084.5,276.84 3003.11,214.449 l -38.96,-29.867 -38.31,30.707 c -79.15,63.473 -156.95,129.375 -233.66,196.113 25.92,5.45 52.68,10.125 79.59,14.063" /><path
         id="path20"
         style="fill:#f0c716;fill-opacity:1;fill-rule:evenodd;stroke:none"
         d="m 1287.31,3318.96 c -79.5,111.59 -132.05,248.45 -166.69,344.21 -110.83,-166.94 -133.347,-362.1 -101.32,-502.95 13.57,-59.67 34.6,-109.38 54.15,-144.69 12.23,39.68 28.73,77.92 48.6,113.34 4.71,8.4 9.81,16.84 15.22,25.31 -24.68,91.18 -43.98,258.6 -30.72,360.37 0.06,-66.17 5.93,-144.55 16.27,-216.26 5.59,31.07 15.77,67.16 31.2,95.58 -13.33,-46.67 -24.18,-104.4 -23.79,-141.49 5.34,-29.67 11.48,-57.28 18.3,-81.25 36.4,52.71 85.02,104.99 138.78,147.83" /><path
         id="path22"
         style="fill:#f0c716;fill-opacity:1;fill-rule:evenodd;stroke:none"
         d="m 1287.31,3318.96 c -79.5,111.59 -132.05,248.45 -166.69,344.21 -110.83,-166.94 -133.347,-362.1 -101.32,-502.95 13.57,-59.67 34.6,-109.38 54.15,-144.69 12.23,39.68 28.73,77.92 48.6,113.34 4.71,8.4 9.81,16.84 15.22,25.31 -24.68,91.18 -43.98,258.6 -30.72,360.37 0.06,-66.17 5.93,-144.55 16.27,-216.26 5.59,31.07 15.77,67.16 31.2,95.58 -13.33,-46.67 -24.18,-104.4 -23.79,-141.49 5.34,-29.67 11.48,-57.28 18.3,-81.25 36.4,52.71 85.02,104.99 138.78,147.83" /><path
         id="path24"
         style="fill:#f0c716;fill-opacity:1;fill-rule:evenodd;stroke:none"
         d="m 1438.2,3384.77 c -127.58,-44.7 -246.7,-170.45 -299.77,-265.09 -22.71,-40.5 -40.29,-83.59 -52.16,-127.32 44.41,-19.96 88.78,-43.53 130.28,-70.61 2.87,12.58 6.18,25.98 9.9,39.97 -3.23,36.71 -21.74,95.17 -41.39,141.52 23.8,-33.31 40.78,-79.82 49.05,-113.9 25.56,88.68 64.78,193.32 106.6,261.19 -46.66,-104 -86.44,-228.08 -109.73,-338.4 62.06,-42.45 116.71,-93.01 154.06,-151.3 17.68,14.39 36.17,27.97 55.18,40.45 2.07,12.11 3.69,24.1 4.85,35.97 6.12,63.04 -5.34,138.48 -21.85,212.6 -20.26,90.89 -15.79,245.08 14.98,334.92" /><path
         id="path26"
         style="fill:#f0c716;fill-opacity:1;fill-rule:evenodd;stroke:none"
         d="m 1438.2,3384.77 c -127.58,-44.7 -246.7,-170.45 -299.77,-265.09 -22.71,-40.5 -40.29,-83.59 -52.16,-127.32 44.41,-19.96 88.78,-43.53 130.28,-70.61 2.87,12.58 6.18,25.98 9.9,39.97 -3.23,36.71 -21.74,95.17 -41.39,141.52 23.8,-33.31 40.78,-79.82 49.05,-113.9 25.56,88.68 64.78,193.32 106.6,261.19 -46.66,-104 -86.44,-228.08 -109.73,-338.4 62.06,-42.45 116.71,-93.01 154.06,-151.3 17.68,14.39 36.17,27.97 55.18,40.45 2.07,12.11 3.69,24.1 4.85,35.97 6.12,63.04 -5.34,138.48 -21.85,212.6 -20.26,90.89 -15.79,245.08 14.98,334.92" /><path
         id="path28"
         style="fill:#f0c716;fill-opacity:1;fill-rule:evenodd;stroke:none"
         d="m 1208.48,2301.7 c -50.62,63.78 -92.59,127.71 -131.3,210.12 216.35,-48.2 319.52,-120.31 410.14,-198.34 -18.73,-27.76 -34.97,-57.27 -48.82,-88.1 -64.16,60.04 -148.69,131.42 -222.97,172.33 66.72,-52.99 148.59,-119.43 215.98,-188.51 -3.06,-7.35 -6.01,-14.74 -8.8,-22.22 -19,7.61 -37.91,15.53 -56.65,24.01 -56.06,25.39 -109.02,54.64 -157.58,90.71" /><path
         id="path30"
         style="fill:#f0c716;fill-opacity:1;fill-rule:evenodd;stroke:none"
         d="m 1208.48,2301.7 c -50.62,63.78 -92.59,127.71 -131.3,210.12 216.35,-48.2 319.52,-120.31 410.14,-198.34 -18.73,-27.76 -34.97,-57.27 -48.82,-88.1 -64.16,60.04 -148.69,131.42 -222.97,172.33 66.72,-52.99 148.59,-119.43 215.98,-188.51 -3.06,-7.35 -6.01,-14.74 -8.8,-22.22 -19,7.61 -37.91,15.53 -56.65,24.01 -56.06,25.39 -109.02,54.64 -157.58,90.71" /><path
         id="path32"
         style="fill:#f0c716;fill-opacity:1;fill-rule:evenodd;stroke:none"
         d="m 1117.71,2521.55 c -35.1,177 -111.76,383.38 -163.468,500.56 176.148,-54.22 340.288,-153.35 416.258,-273.45 -41.83,-36.01 -78.5,-76.41 -106.09,-117.39 -27.66,-41.12 -49.16,-86.16 -64.07,-133.3 -27.22,8.89 -54.82,16.65 -82.63,23.58 z m -70.92,408.33 c 51.89,-56.43 102.81,-114.61 147.84,-175.45 -23.54,13.73 -51.3,24.11 -91.22,33.39 38.61,-16.29 78.71,-35.3 106.29,-54.21 21.57,-30.4 41.59,-61.46 59.42,-93.32 l 10.09,15.21 c -47.55,84.16 -136.01,188.48 -232.42,274.38" /><path
         id="path34"
         style="fill:#f0c716;fill-opacity:1;fill-rule:evenodd;stroke:none"
         d="m 1117.71,2521.55 c -35.1,177 -111.76,383.38 -163.468,500.56 176.148,-54.22 340.288,-153.35 416.258,-273.45 -41.83,-36.01 -78.5,-76.41 -106.09,-117.39 -27.66,-41.12 -49.16,-86.16 -64.07,-133.3 -27.22,8.89 -54.82,16.65 -82.63,23.58 z m -70.92,408.33 c 51.89,-56.43 102.81,-114.61 147.84,-175.45 -23.54,13.73 -51.3,24.11 -91.22,33.39 38.61,-16.29 78.71,-35.3 106.29,-54.21 21.57,-30.4 41.59,-61.46 59.42,-93.32 l 10.09,15.21 c -47.55,84.16 -136.01,188.48 -232.42,274.38" /><path
         id="path36"
         style="fill:#f0c716;fill-opacity:1;fill-rule:evenodd;stroke:none"
         d="m 1595.37,2852.66 c -130.78,-34.23 -254.78,-141.84 -315.37,-231.87 -27.31,-40.59 -47.78,-84.16 -61.85,-128.83 47.14,-16.32 93,-36.12 136.67,-60.54 6.52,-3.65 12.93,-7.37 19.24,-11.15 16.45,65.82 40.01,133.78 70.87,190 -21,-65.44 -41.27,-132.07 -56.69,-198.75 17.02,-10.78 33.35,-22.1 49.27,-33.94 21.29,22.8 43.9,52.99 63.63,82.65 -21.54,-43.4 -35.14,-67.94 -54.3,-89.68 17.4,-13.28 34.35,-27.18 51.27,-41.65 19.15,26.36 40.71,50.99 64.74,73.44 -0.41,41.21 -4.75,84.95 -10.8,128.39 -12.82,92.23 5.37,234.86 43.32,321.93" /><path
         id="path38"
         style="fill:#f0c716;fill-opacity:1;fill-rule:evenodd;stroke:none"
         d="m 1595.37,2852.66 c -130.78,-34.23 -254.78,-141.84 -315.37,-231.87 -27.31,-40.59 -47.78,-84.16 -61.85,-128.83 47.14,-16.32 93,-36.12 136.67,-60.54 6.52,-3.65 12.93,-7.37 19.24,-11.15 16.45,65.82 40.01,133.78 70.87,190 -21,-65.44 -41.27,-132.07 -56.69,-198.75 17.02,-10.78 33.35,-22.1 49.27,-33.94 21.29,22.8 43.9,52.99 63.63,82.65 -21.54,-43.4 -35.14,-67.94 -54.3,-89.68 17.4,-13.28 34.35,-27.18 51.27,-41.65 19.15,26.36 40.71,50.99 64.74,73.44 -0.41,41.21 -4.75,84.95 -10.8,128.39 -12.82,92.23 5.37,234.86 43.32,321.93" /><path
         id="path40"
         style="fill:#f0c716;fill-opacity:1;fill-rule:evenodd;stroke:none"
         d="m 1621.56,1713.32 c -6.6,-52.59 -9.07,-120.07 -5.66,-154.86 15.46,-3.96 83.35,-15.85 117.06,-25.36 -2.16,42.09 -2.06,87.27 -0.15,135.12 -38.81,19.87 -71.21,32.7 -111.25,45.1 z m 127.05,-184.79 c 16.43,-4.97 32.78,-10.49 48.99,-16.51 7.92,-2.95 15.82,-6.02 23.64,-9.21 9.2,31.28 20.64,62.2 34.1,92.62 -36.77,24.54 -75.4,48.17 -115.07,68.93 2.03,-45.1 4.22,-90.77 8.34,-135.83" /><path
         id="path42"
         style="fill:#f0c716;fill-opacity:1;fill-rule:evenodd;stroke:none"
         d="m 1621.56,1713.32 c -6.6,-52.59 -9.07,-120.07 -5.66,-154.86 15.46,-3.96 83.35,-15.85 117.06,-25.36 -2.16,42.09 -2.06,87.27 -0.15,135.12 -38.81,19.87 -71.21,32.7 -111.25,45.1 z m 127.05,-184.79 c 16.43,-4.97 32.78,-10.49 48.99,-16.51 7.92,-2.95 15.82,-6.02 23.64,-9.21 9.2,31.28 20.64,62.2 34.1,92.62 -36.77,24.54 -75.4,48.17 -115.07,68.93 2.03,-45.1 4.22,-90.77 8.34,-135.83" /><path
         id="path44"
         style="fill:#f0c716;fill-opacity:1;fill-rule:evenodd;stroke:none"
         d="m 1736.27,1198.36 -276.53,347.65 c 139.87,5.18 258.53,-21.34 356.4,-61.4 -9.81,-37.07 -16.41,-74.68 -19.38,-112.64 -52.38,34.37 -122.29,71.6 -189.62,101.9 59.63,-36.11 131.77,-82.32 188.37,-122.37 -0.49,-11.34 -0.64,-22.69 -0.46,-34.09 -22.69,-1.89 -45.08,-3.43 -85.98,-6.87 27.97,-3.19 59.35,-4.21 86.28,-4.75 1.2,-33.56 5.41,-67.33 12.85,-101.23 -23.89,-0.99 -47.87,-3.08 -71.93,-6.2" /><path
         id="path46"
         style="fill:#f0c716;fill-opacity:1;fill-rule:evenodd;stroke:none"
         d="m 1736.27,1198.36 -276.53,347.65 c 139.87,5.18 258.53,-21.34 356.4,-61.4 -9.81,-37.07 -16.41,-74.68 -19.38,-112.64 -52.38,34.37 -122.29,71.6 -189.62,101.9 59.63,-36.11 131.77,-82.32 188.37,-122.37 -0.49,-11.34 -0.64,-22.69 -0.46,-34.09 -22.69,-1.89 -45.08,-3.43 -85.98,-6.87 27.97,-3.19 59.35,-4.21 86.28,-4.75 1.2,-33.56 5.41,-67.33 12.85,-101.23 -23.89,-0.99 -47.87,-3.08 -71.93,-6.2" /><path
         id="path48"
         style="fill:#f0c716;fill-opacity:1;fill-rule:evenodd;stroke:none"
         d="m 1945.84,1720.79 c -111.92,-169.39 -157.27,-344.61 -118.52,-515.66 43.89,0.76 87.4,-2.15 130.34,-8.95 -22.27,92.04 -35.46,210.97 -28.89,348.41 5.05,-93.09 14.05,-191.44 31.77,-284.37 9.55,35.03 23.94,58.5 55.33,108.79 -22.66,-45 -45.69,-105.37 -49.08,-139.66 2.62,-12.18 5.41,-24.24 8.37,-36.16 26.99,-4.95 53.76,-11.48 80.22,-19.58 13.8,24.02 31.86,45.07 51.8,64.87 -12.14,-18.51 -27.51,-41.47 -39.45,-68.78 39,-12.73 77.39,-28.98 114.96,-48.89 8.05,-4.26 15.91,-8.6 23.62,-13.03 -11.16,60.51 -34.22,114.96 -59.38,160.28 -30.26,54.55 -71.56,102.16 -107.21,168.46 -44.13,82.05 -77.69,196.49 -93.88,284.27" /><path
         id="path50"
         style="fill:#f0c716;fill-opacity:1;fill-rule:evenodd;stroke:none"
         d="m 1945.84,1720.79 c -111.92,-169.39 -157.27,-344.61 -118.52,-515.66 43.89,0.76 87.4,-2.15 130.34,-8.95 -22.27,92.04 -35.46,210.97 -28.89,348.41 5.05,-93.09 14.05,-191.44 31.77,-284.37 9.55,35.03 23.94,58.5 55.33,108.79 -22.66,-45 -45.69,-105.37 -49.08,-139.66 2.62,-12.18 5.41,-24.24 8.37,-36.16 26.99,-4.95 53.76,-11.48 80.22,-19.58 13.8,24.02 31.86,45.07 51.8,64.87 -12.14,-18.51 -27.51,-41.47 -39.45,-68.78 39,-12.73 77.39,-28.98 114.96,-48.89 8.05,-4.26 15.91,-8.6 23.62,-13.03 -11.16,60.51 -34.22,114.96 -59.38,160.28 -30.26,54.55 -71.56,102.16 -107.21,168.46 -44.13,82.05 -77.69,196.49 -93.88,284.27" /><path
         id="path52"
         style="fill:none;stroke:#231f20;stroke-width:0.0283;stroke-linecap:butt;stroke-linejoin:miter;stroke-miterlimit:22.92560005;stroke-dasharray:none;stroke-opacity:1"
         d="m 2196.33,733.605 c -66.69,23.313 -141.76,54.29 -172.93,85.993 l -344.44,350.262 c 420.93,84.76 658.43,-178.122 721.37,-245.083 18.59,-19.785 47.03,-88.882 67.25,-142.98 -23.92,-5.516 -47.85,-11.027 -71.78,-16.289 -39.47,43.512 -89.82,89.027 -154.93,136.422 -2.36,39.785 -5.95,69.203 -23.24,113.29 8.35,-35.513 10.98,-69.599 7.83,-102.232 -94.84,67.106 -219.46,137.962 -384.54,212.262 67.86,-37.18 136.05,-73 202.92,-111.74 -30.05,-2.61 -49.01,-2.83 -101.01,-4.51 45.18,-5.14 95.81,-8.09 125.08,-9.598 75.11,-44.609 148.27,-93.617 217.13,-153.207 -41.75,-3.168 -117.82,-4.457 -172.36,-6.211 43.94,-5 148.04,-6.859 188.71,-8.191 24.63,-22.156 48.66,-45.781 72,-71.129 -17.98,-3.82 -35.97,-7.453 -54.01,-10.809 -34.93,-6.503 -83.46,-16.968 -123.05,-16.25 z" /><path
         id="path54"
         style="fill:#f0c716;fill-opacity:1;fill-rule:evenodd;stroke:none"
         d="m 2196.33,733.605 c -66.69,23.313 -141.76,54.29 -172.93,85.993 l -344.44,350.262 c 420.93,84.76 658.43,-178.122 721.37,-245.083 18.59,-19.785 47.03,-88.882 67.25,-142.98 -23.92,-5.516 -47.85,-11.027 -71.78,-16.289 -39.47,43.512 -89.82,89.027 -154.93,136.422 -2.36,39.785 -5.95,69.203 -23.24,113.29 8.35,-35.513 10.98,-69.599 7.83,-102.232 -94.84,67.106 -219.46,137.962 -384.54,212.262 67.86,-37.18 136.05,-73 202.92,-111.74 -30.05,-2.61 -49.01,-2.83 -101.01,-4.51 45.18,-5.14 95.81,-8.09 125.08,-9.598 75.11,-44.609 148.27,-93.617 217.13,-153.207 -41.75,-3.168 -117.82,-4.457 -172.36,-6.211 43.94,-5 148.04,-6.859 188.71,-8.191 24.63,-22.156 48.66,-45.781 72,-71.129 -17.98,-3.82 -35.97,-7.453 -54.01,-10.809 -34.93,-6.503 -83.46,-16.968 -123.05,-16.25" /><path
         id="path56"
         style="fill:#f0c716;fill-opacity:1;fill-rule:evenodd;stroke:none"
         d="m 1419.47,1764.55 c 38.82,-60.66 69.68,-125.79 95.74,-198.55 25.24,-0.26 47.8,-2.21 81.66,-7.3 -3.24,47.68 -1.28,105.77 7.75,161.19 -59.24,16.09 -124.7,25.1 -185.15,44.66" /><path
         id="path58"
         style="fill:#f0c716;fill-opacity:1;fill-rule:evenodd;stroke:none"
         d="m 1419.47,1764.55 c 38.82,-60.66 69.68,-125.79 95.74,-198.55 25.24,-0.26 47.8,-2.21 81.66,-7.3 -3.24,47.68 -1.28,105.77 7.75,161.19 -59.24,16.09 -124.7,25.1 -185.15,44.66" /><path
         id="path60"
         style="fill:none;stroke:#231f20;stroke-width:0.0283;stroke-linecap:butt;stroke-linejoin:miter;stroke-miterlimit:22.92560005;stroke-dasharray:none;stroke-opacity:1"
         d="m 1123,2350.88 c -9.48,-38.9 -4.38,-79.06 8.66,-116.83 16.78,-48.59 46.73,-96.03 75.75,-161.01 33.08,-74.06 44.66,-173.36 107.61,-230.71 77.22,-70.36 178.68,-72.16 285.66,-101.32 84.87,-23.13 173.13,-69.06 262.53,-128.33 9.84,20.93 20.62,41.62 32.25,62.04 -38.6,108.39 -87.08,234.1 -109.5,280.19 -39.01,80.22 -118.9,115.68 -196.18,147.55 -137.89,56.91 -323.76,104.08 -466.78,248.42 z" /><path
         id="path62"
         style="fill:#f0c716;fill-opacity:1;fill-rule:evenodd;stroke:none"
         d="m 1630.52,2432.64 c -97.17,-66.66 -155.97,-160.71 -190.34,-252.55 33.73,-13.17 67.7,-25.55 101.51,-38.44 6.82,64.73 19.85,131.79 41.06,189.23 -10.54,-64.54 -20.28,-130.06 -25.85,-195.06 13.4,-5.19 26.73,-10.5 40.04,-15.99 40.49,-16.7 76.49,-33.1 107.63,-52.39 -7.44,17.01 -14.67,34.66 -21.34,53.26 -31.42,87.69 -49.74,222.74 -52.71,311.94" /><path
         id="path64"
         style="fill:#f0c716;fill-opacity:1;fill-rule:evenodd;stroke:none"
         d="m 1630.52,2432.64 c -97.17,-66.66 -155.97,-160.71 -190.34,-252.55 33.73,-13.17 67.7,-25.55 101.51,-38.44 6.82,64.73 19.85,131.79 41.06,189.23 -10.54,-64.54 -20.28,-130.06 -25.85,-195.06 13.4,-5.19 26.73,-10.5 40.04,-15.99 40.49,-16.7 76.49,-33.1 107.63,-52.39 -7.44,17.01 -14.67,34.66 -21.34,53.26 -31.42,87.69 -49.74,222.74 -52.71,311.94" /><path
         id="path66"
         style="fill:#e1242e;fill-opacity:1;fill-rule:evenodd;stroke:none"
         d="m 1123,2350.88 c -9.48,-38.9 -4.38,-79.06 8.66,-116.83 16.78,-48.59 46.73,-96.03 75.75,-161.01 33.08,-74.06 44.66,-173.36 107.61,-230.71 77.22,-70.36 178.68,-72.16 285.66,-101.32 84.87,-23.13 173.13,-69.06 262.53,-128.33 9.84,20.93 20.62,41.62 32.25,62.04 -38.6,108.39 -87.08,234.1 -109.5,280.19 -39.01,80.22 -118.9,115.68 -196.18,147.55 -137.89,56.91 -323.76,104.08 -466.78,248.42" /><path
         id="path68"
         style="fill:#e1242e;fill-opacity:1;fill-rule:evenodd;stroke:none"
         d="m 4790.36,2349.55 c 9.48,-38.9 5.68,-80.39 -7.34,-118.15 -16.77,-48.57 -37.48,-90.74 -66.5,-155.71 -33.07,-74.06 -61.11,-181.95 -122.14,-241.31 -29.38,-28.56 -51.64,-43.57 -83.85,-59.06 -68.37,-32.89 -148.43,-51.05 -221.64,-68.78 -88.16,-21.35 -199.88,-65.5 -308.01,-135.21 47.86,107.06 140.27,334.1 161.06,380.93 45.59,102.74 114.93,122.3 192.22,154.18 135.24,54.25 314.5,102.74 456.2,243.11" /><path
         id="path70"
         style="fill:#f0c716;fill-opacity:1;fill-rule:evenodd;stroke:none"
         d="m 3464.58,782.754 c 3.2,48.101 3.92,100.039 30.19,130.016 23.26,26.535 67.53,-1.817 91.79,20.078 22.15,19.992 11.91,104.112 58.05,158.272 18.79,22.04 59.25,4.5 87.57,10.55 38.14,8.14 42.73,49.93 74.94,53.79 31.35,3.76 48.79,-34.99 79.16,-26.38 17.69,5.01 31.66,25.26 49.61,42.42 17.97,17.17 39.96,31.28 56.88,24.08 24.66,-10.51 29.39,-35.51 26.01,-60.14 -3.39,-24.62 -20.18,-43.67 -16.48,-65.43 2.4,-14.12 19.57,-20.78 15.8,-46.41 -3.95,-26.838 -28.85,-22.44 -28.85,-58.1 0,-35.969 23.35,-77.488 7.76,-104.371 -17.37,-29.949 -62.9,-52.359 -104.48,-73.879 -12.75,-6.598 -54.45,-0.145 -68.08,-7.406 -22.41,-11.93 -39.81,-26.875 -57.04,-39.789 l -3.57,-0.012 c -54.54,-0.145 -106.43,1.129 -159.97,11.371 45.71,35.637 91.84,76.399 141.09,125.852 48.38,-3.539 126.52,-0.883 172.86,6.347 -36.14,-0.902 -119.4,-2.785 -161.68,4.977 60.79,62.082 126.55,137.52 202.15,232.73 -46.88,-50.66 -92.47,-102.13 -139.67,-152.422 3.47,32.732 5.99,56.492 10.04,95.552 -11.83,-42.01 -18.07,-83.583 -25.79,-112.227 -34.76,-36.528 -70.55,-72.309 -108.49,-106.571 -0.36,41.176 4.03,119.481 6.29,175.298 -8.29,-44.071 -17.86,-150.114 -22.04,-189.317 -29.54,-25.918 -60.43,-50.863 -93.19,-74.531 -9.98,34.562 -16.71,57.906 -28.3,97.781 4.02,-35.75 11.41,-69.754 15.93,-97.098 -36.28,7.781 -72.38,16.34 -108.49,24.969" /><path
         id="path72"
         style="fill:#f0c716;fill-opacity:1;fill-rule:evenodd;stroke:none"
         d="m 4315.39,1693.6 c -35.23,-63.88 -81.38,-137.85 -125.95,-204.1 -10.96,43.18 -21.57,78.64 -35.26,107.58 10.58,-37.6 20.45,-77.67 27.53,-119.02 -15.8,-23.29 -31.33,-45.46 -45.98,-65.71 -0.35,2.65 -0.85,5.44 -1.56,8.36 -5.97,24.62 -20.43,30.29 -30.68,49.94 -6.77,12.98 -2.04,55.77 -3.52,72.93 -2.4,27.83 -10.04,49.71 -34,56.06 71.97,38.54 150.16,69.96 227.34,88.65 z m 145.32,40.78 c -2.68,-54.22 -38.71,-115.42 -64.88,-149.49 -16.51,-21.49 27.67,-25.96 20.72,-52.87 -2.6,-10.1 -21.91,-15.7 -19.59,-34.1 3.34,-26.56 30.38,-22.92 27.35,-56.59 -2.92,-32.49 -105.52,-89 -176.01,-106.49 -19.75,-4.9 -39.11,-12.42 -40.94,-48.3 -1.58,-30.8 6.91,-56.66 -25.91,-72.83 -8.13,-4.01 -15.57,-7.34 -22.95,-10.08 -0.99,18.54 -7.56,33.84 -24.68,48.75 -19.64,17.09 -37.09,36.75 -39.19,58.66 14.92,30.01 30.01,61.85 51.3,94.03 63.62,8.57 130.61,11.18 187.16,22.81 -61.47,-2.58 -122.63,-7.8 -177.05,-8.06 21.7,31.29 48.04,70.16 74.45,112.09 22.17,8.96 47.8,18.96 73.17,31.3 -26.38,-7.63 -45.55,-13.22 -65.49,-19.01 30.43,49.03 60.35,101.58 82.71,150.73 46.82,11.31 94.32,23.18 139.83,39.45" /><path
         id="path74"
         style="fill:#f0c716;fill-opacity:1;fill-rule:evenodd;stroke:none"
         d="m 3736.62,1123.01 c -4.77,31.04 -6.8,60.51 -1.72,80.25 4.46,17.26 35.1,27.45 45.25,45.31 14.71,25.93 -12.37,94.17 -9.46,122.04 4.08,39.21 44.43,27.91 69.5,36.02 30.76,9.94 12.85,45.67 36.74,57.39 27.59,13.53 21.12,-21.62 49.7,-3.81 12.69,7.92 26.76,41.59 31.99,56.72 5.48,15.88 19.45,21.15 28.47,28.45 24.4,19.73 48.39,36.83 60.36,37.31 26.76,1.07 31.52,-14.17 33.8,-40.73 2.14,-24.73 -4.62,-60.45 5.58,-79.99 10.94,-20.97 24.33,-26.08 29.09,-45.69 5.88,-24.19 -7.38,-35.68 -21.87,-53.55 -41.33,-50.91 -5.57,-95.8 27.43,-124.52 19.62,-17.07 19.85,-33.79 17.41,-54.61 -5.88,-50.22 -44.48,-82.8 -73.41,-92.32 -12.63,-4.16 -27.89,-5.04 -43.54,-5.69 3.64,14.21 13.15,30.64 15.45,47.29 4.54,33.02 -4.17,65.89 -37.26,79.98 -23.93,10.19 -49.2,-3.81 -68.16,-19.67 17.42,44.11 36.41,95 53.02,147.22 18.64,16.1 40.63,34.5 61.55,55.21 -22.88,-15.96 -39.38,-27.52 -56.68,-39.62 14.39,46.85 26.59,94.33 33.75,138.53 -22.55,-96.14 -69.65,-221.09 -112.58,-321.92 -4.17,-4.45 -8.75,-9.25 -13.21,-13.49 -13.12,70.8 -23.6,125.06 -40.84,166.75 12.65,-55.46 23.56,-116.01 26.46,-177.84 -0.8,-0.38 -1.55,-0.67 -2.28,-0.88 -16.34,-4.63 -40,31.31 -76.28,26.96 -37.1,-4.45 -45.54,-39.45 -68.26,-51.1" /><path
         id="path76"
         style="fill:#f0c716;fill-opacity:1;fill-rule:evenodd;stroke:none"
         d="m 4447.86,2475.29 c 0.08,20.82 3.15,40.07 12.36,55.8 17.84,30.45 66.67,10.95 86.36,37.03 17.99,23.81 -7.94,104.5 27.16,166.38 14.29,25.18 54.29,20.37 80.96,31.64 35.91,15.17 15.4,15.36 45.35,27.74 34.03,14.05 37.74,37.91 59.06,47.85 12.27,5.73 26.17,-15.08 60.43,22.66 16.66,18.37 43.88,29.46 61.87,33.05 18.23,3.63 39.4,13.34 40.61,-11.46 1.19,-24.14 -10.05,-99.41 -25.75,-133.29 -11.4,-24.57 38.67,-25.59 36.93,-53.31 -0.65,-10.42 -25.16,-27.51 -19.42,-45.14 8.29,-25.47 37.03,-14.14 40.17,-47.78 2.15,-23.01 -22.84,-56.33 -63.02,-88.5 -18.22,-14.59 -79.09,-46.14 -92.88,-61.25 -14.71,-16.11 -22.46,-32.6 -9.46,-51.13 21.61,-30.84 1.64,-49.01 -27.49,-71.04 -6.27,21.21 -16.06,40.87 -30.8,58.46 -5.32,6.33 -27.73,26.32 -29.96,30.54 -2.04,5.82 -0.31,31.58 -2.45,42.42 -1.49,7.54 -3.96,14.17 -7.23,20.03 48.37,7.74 120.88,21.97 154.47,35.2 -50.55,-11.1 -121.23,-20.58 -164.36,-22.06 -4.45,4.48 -9.58,8.28 -15.26,11.45 47.42,75.4 161.74,209.97 210.6,264.84 -51.57,-47.72 -187.56,-185.46 -224.23,-258.71 -4.57,1.63 -9.36,3 -14.35,4.09 -31.78,6.99 -90.29,-11.11 -121.08,-21.1 -23.09,-7.47 -45.92,-15.76 -68.59,-24.41" /><path
         id="path78"
         style="fill:#f0c716;fill-opacity:1;fill-rule:evenodd;stroke:none"
         d="m 4531.94,2975.02 c -0.49,6.5 -0.58,12.86 -0.17,19.02 2.19,-7.99 3.86,-14.54 0.17,-19.02 z m 130.8,262.59 c 3.81,26.38 13.22,50 30.34,60.18 33.5,19.91 52.83,14.67 80.81,31.01 31.78,18.54 16.36,38.74 36.12,51.48 11.37,7.34 29.32,-7.4 52.82,22.72 15.25,19.55 24.92,32.54 42.25,38.53 17.56,6.07 42.65,18.99 41.8,-5.82 -0.82,-23.75 -1.7,-76.01 -4.72,-118.32 -1.93,-27 33.87,-17.45 35.93,-45.15 0.78,-10.36 -15.89,-45.24 -7.8,-61.92 11.68,-24.11 57.31,6.36 52.91,-36.55 -2.97,-29.09 -23.09,-69.54 -67.55,-101.57 -21.44,-15.44 -61.36,-39.26 -75.45,-79.04 -7.9,14.18 -18.54,26.3 -31.57,37.42 -6.2,5.29 -41.62,28.51 -44.93,32.78 -0.28,2.57 -0.5,5.11 -0.66,7.68 43.54,20.68 100.62,50.23 126.8,70.17 -37.31,-20 -87.9,-42.62 -127.56,-57.4 -0.18,2.62 -0.39,5.22 -0.71,7.79 25.29,88.92 62.05,202.64 80.7,257.03 -14.1,-31.01 -36.42,-86.82 -57.88,-146.52 -13.72,23.41 -23.36,38.63 -41,68.87 12.17,-32.61 25.5,-59.1 35.99,-82.94 -8.75,-24.75 -17.23,-49.88 -24.82,-73.95 -0.97,1.64 -2.04,3.26 -3.27,4.84 -6.24,8.02 -14.36,12.53 -23.82,15.61 -2.45,0.8 -11.34,3 -13.74,4.41 -9.27,17.07 -14.51,34.14 -25.14,51.46 -13.02,21.19 -39.28,47.19 -65.85,47.2 z m 229.59,-318.03 c 0.78,-4.67 0.37,-9.2 -1,-13.7 l 0.09,1.41 c 0.25,4.07 0.57,8.15 0.91,12.29" /><path
         id="path80"
         style="fill:#f0c716;fill-opacity:1;fill-rule:evenodd;stroke:none"
         d="m 4545.82,2717.7 c -1.96,4.97 -3.49,9.74 -4.45,14.22 -3.75,17.43 19.09,40.25 20.16,60.77 1.53,29.77 -53.24,78.66 -63.12,104.88 -13.9,36.88 27.23,44.86 46.02,63.33 23.05,22.66 -8.96,46.59 7.16,67.77 18.6,24.45 28.55,-9.87 46.12,18.85 7.81,12.76 7.97,38.57 5.86,54.43 -2.21,16.63 7.93,37.71 12.71,48.79 6.4,14.85 22.11,57.46 34.61,64.37 19.48,12.94 47.75,-11.84 61.69,-34.53 12.98,-21.13 15.42,-33.76 24.94,-51.14 7.38,-13.49 28.44,-8.56 38.95,-22.05 8.71,-11.18 5.81,-22.46 8.64,-46.87 1.84,-15.73 27.33,-23.76 51.33,-44.23 14.4,-12.29 28.7,-28.28 35.86,-52.63 4.16,-14.14 2.24,-29.22 0.8,-48.83 -24.31,-5.81 -50.89,-19.53 -67.48,-37.82 -29.57,-32.57 -29.28,-6.5 -54.46,-18.25 -10.68,-4.98 -17.85,-12.24 -24.63,-19.8 -0.8,15.21 -1.97,31.39 -3.42,48.12 14.53,23.55 34.26,52.18 51.48,83.64 -21.68,-27.28 -35.83,-45.11 -53,-66.81 -8.24,86.83 -22.93,183.63 -32.65,230.06 7.27,-66.01 20.83,-214.48 24.54,-309.07 -5.57,-5.31 -12.01,-10.12 -20.6,-13.67 -10.43,-4.3 -19.14,-8.48 -26.72,-17.03 -4.52,-5.11 -12.67,-8.18 -18.77,-10.75 -29.85,-12.62 -70.03,-4.51 -89.98,-39.68 -4.8,-8.45 -8.59,-17.18 -11.59,-26.07" /><path
         id="path82"
         style="fill:#f0c716;fill-opacity:1;fill-rule:evenodd;stroke:none"
         d="m 4601.57,3164.19 c -24.28,19.73 -44.04,44.77 -58.64,58.64 -33.04,31.35 -12.17,7.71 -32.09,37.89 -15.83,23.99 4.26,56.32 26.86,72.33 14.78,10.48 22.96,26.1 24.01,36.43 3.04,29.64 -33.69,62.22 -44.67,97.25 -9.46,30.19 10.05,91.63 74.62,102.09 19.19,3.11 13.69,38.45 24.58,48.78 31.22,29.56 63.2,-13.33 60.82,41.47 -0.73,16.75 5.8,37.29 11.11,48.12 7.12,14.51 24.91,56.3 37.74,62.58 10.98,6.56 21.4,-1.61 33.07,-11.18 9.67,-7.91 21.04,-15.76 26.84,-26.32 11.94,-21.74 13.75,-34.48 22.41,-52.31 6.7,-13.83 26.75,-10.9 37.82,-23.94 8.14,-9.59 7.35,-20.07 6.33,-44.59 -0.65,-15.81 30.1,-27.72 53.05,-49.34 13.77,-12.97 23.32,-19.72 29.28,-44.37 2.93,-12.11 1.46,-30.51 -0.51,-48.63 -8.26,-0.28 -16.66,-2.99 -24.29,-5.77 -3.66,-1.34 -7.29,-2.77 -10.97,-4.04 -23.4,-8.09 -36.3,-25.97 -50.92,-44.73 -18.37,-23.53 -28.04,-5.48 -48.2,-18.49 -27.19,-17.54 -11.98,-37.38 -35.39,-51.04 -8.73,-5.09 -17.1,-7.89 -26.8,-10.45 l -5.9,-1.57 c 5.2,35.43 9.35,82.31 12.4,130.75 17.67,22.13 42.58,49.96 63.79,79.59 -24.92,-24.58 -42.72,-42.14 -62.74,-61.96 4.33,76.03 5.92,152.92 4.35,192.9 -3.38,-58.76 -12.73,-184.74 -23.23,-278.56 -30.85,32.45 -70,70.26 -100.14,85.09 36.64,-30.61 72.77,-71.19 98.01,-103.47 -2.15,-17.97 -4.31,-34.36 -6.49,-48.36 -11.52,-3.59 -22.07,-7.84 -34.2,-15.04 -26.17,-15.56 -36.94,-49.65 -40.3,-81.56 -0.73,-0.41 -1.45,-0.83 -2.17,-1.29 -17.3,-10.4 -30.62,-45.45 -39.44,-66.9" /><path
         id="path84"
         style="fill:#f0c716;fill-opacity:1;fill-rule:evenodd;stroke:none"
         d="m 4327.01,2123.82 c -1.08,13.19 -1.29,23.25 -0.21,28 5.95,26.23 41.7,29.65 59.77,54.57 15.89,21.91 3.75,47.08 -9.48,78.76 -17.02,40.73 -37.63,90.53 -21.12,139.76 4.08,39.2 27.28,6.77 52.34,14.88 7.89,2.57 84.7,35.04 149.24,52.64 -13.47,-63.23 -29.34,-127.03 -46.66,-191.43 -29.94,37.89 -74.44,87.8 -106.91,114.08 25.38,-27.1 82.1,-92.27 102.95,-128.69 -9.48,-34.84 -19.34,-69.87 -29.51,-105.09 -49.9,-19.64 -100.34,-37.4 -150.3,-57.44 z m 232.09,369.03 c 30.67,8.28 58.42,13.11 74.4,9.6 64.25,-14.11 41.93,-64.5 49.18,-85.29 5.6,-16.03 42.29,-29.06 59.84,-86.11 -57.23,-48.88 -121.47,-86.59 -190.52,-118.27 -18.77,-8.62 -37.71,-16.67 -56.75,-24.37 3.61,14.41 7.2,29.2 10.79,44.42 40.3,26.88 113.37,80.02 145.41,115.78 -27.78,-23.51 -102.29,-76.27 -140.85,-96.29 8.29,35.89 16.55,74.11 24.83,115.11 17.98,22.08 43.17,49.14 66,79.77 -25.29,-24.01 -41.79,-39.72 -61.84,-58.83 6.5,32.99 13.02,67.76 19.51,104.48" /><path
         id="path86"
         style="fill:#e1242e;fill-opacity:1;fill-rule:evenodd;stroke:none"
         d="m 2960.43,5577.58 -201.89,-466.59 -504.1,-49.4 379.03,-338.53 -108.98,-497.57 435.94,258.16 435.95,-258.16 -108.98,497.57 379.03,338.53 -504.1,49.4 -201.9,466.59" /><path
         id="path88"
         style="fill:#f0c716;fill-opacity:1;fill-rule:evenodd;stroke:none"
         d="M 2966.07,5300.86 2953,4855.37 2514.95,4977.98 2941,4818.94 2691.75,4455.7 l 275.43,344.86 264.81,-336.43 -237.58,356.89 401.75,145.39 -410.59,-114.18 -19.5,448.63" /><path
         id="path90"
         style="fill:#e1242e;fill-opacity:1;fill-rule:evenodd;stroke:none"
         d="m 2170.49,717.031 c 116.82,-98.023 220.34,-203.215 352.26,-295.078 25.37,-17.672 30.63,-30.32 61.95,-19.785 95.99,32.289 251.09,56.238 374.5,56.945 127.34,0.727 258.93,-21.722 384.15,-56.941 36.38,-10.234 51.08,5.762 78.81,26.851 119.23,90.684 227.48,195.258 341.73,292.235 -60.07,-0.16 -111.85,1.168 -169.51,12.875 -181.24,36.793 -366.18,101.965 -631.54,98.976 -265.37,-2.988 -493.67,-74.464 -640.02,-101.718 -60.57,-11.282 -112.25,-21.059 -152.33,-14.36" /><path
         id="path92"
         style="fill:#e1242e;fill-opacity:1;fill-rule:evenodd;stroke:none"
         d="m 1523.77,3983.06 c 268.93,105.15 528.63,233.57 783.46,368.92 61.36,32.57 122.43,65.63 183.32,99.02 l 53.24,243.02 -50.98,45.53 c -64.73,-33.3 -129.03,-66.96 -192.9,-100.35 -209.25,-109.4 -419.06,-222.21 -633.59,-320.81 -47.7,-21.91 -105.17,-47.81 -165.94,-72.08 -98.82,-39.45 -196.09,-72.93 -293.95,-87.49 1.8,-213.3 12.1,-420.12 28.4,-632.78 2.54,-33.15 5.22,-66.26 8.01,-99.38 18.02,-33.51 37.66,-65.96 59.2,-96.24 41.75,31.37 86.14,56.73 129.95,72.08 l 36.51,12.8 -12.53,-36.61 c -29.59,-86.39 -34.29,-235.64 -14.42,-324.76 15.34,-68.84 29.06,-147.95 22.21,-218.49 -0.67,-6.99 -1.51,-13.94 -2.48,-20.9 41.16,24.75 84.22,44.14 126.54,55.55 -70.32,338.2 -89.69,688.1 -115.59,1031.04 l -4.52,60.03 z m 962.5,-3196.912 c 36.02,8.278 72.1,16.411 108.26,23.622 51.13,10.203 102.36,19.039 153.82,25.937 -509.1,497.013 -922.38,1156.003 -1111.55,1832.223 -13.42,47.99 -25.55,96.31 -36.55,144.89 -28,-83.73 -40.64,-200.06 -29.59,-279.5 5.07,-36.39 9.47,-75.5 10.75,-114.51 12.24,10.33 25.06,20.11 38.49,29.32 l 28.26,19.39 1.14,-34.25 c 3.13,-93.95 19.98,-217.95 51.62,-306.24 9.93,-27.69 21.9,-54.33 34.21,-80.76 12.14,-9.48 23.33,-19.72 33.51,-30.98 26.95,-29.79 43.38,-68.69 62.97,-118.66 18.71,-47.75 58.47,-151.79 76.27,-201.97 l 47.98,75.36 8.45,-45.83 c 15.89,-86.06 51.31,-203.19 91.95,-278.78 31.86,-59.25 74.85,-110.11 107.1,-168.23 31.51,-56.78 54.57,-118.2 64.05,-181.98 70.5,-43.62 128.13,-95.352 186.6,-157.555 22.49,-23.93 51.73,-95.543 72.26,-151.497 z m 310.19,-357.285 c 55.63,-47.765 111.87,-94.925 168.81,-140.828 58.65,45.223 116.29,91.715 173.09,139.219 -59.5,8.68 -119.48,13.414 -179.06,13.074 -49.67,-0.289 -106.12,-4.164 -162.84,-11.465 z m 649.53,358.356 c 2.88,47.031 4.47,103.484 34.65,137.929 29.84,34.04 78.45,8.215 93.34,21.645 5.88,5.316 12.46,47.277 14.18,56.017 7.17,36.35 17.63,71.71 42.16,100.5 24.35,28.58 58.92,14.29 87.79,15.52 -5.15,33.27 -7.37,65.96 -1.4,89.13 7.14,27.63 37.84,33.58 47.1,49.88 8.95,15.78 -14.56,88.35 -11.81,114.72 1.56,14.97 7.59,28.24 20.13,37.08 21.3,15 41.57,8.16 62.29,14.87 14.99,4.83 1.95,40.53 34.24,56.37 10.3,5.15 25.17,5.7 32.43,-0.99 2.52,-2.32 4.88,-3.95 7.09,-4.96 l 0.82,0.96 c 5.78,6.6 12.29,10.95 19.09,13.77 l 12.69,27.68 c 5.34,20.57 13.54,41.1 22.95,61.65 24.43,54.64 47.58,110.04 70.7,165.25 29.99,71.59 58.88,144.77 90.34,215.64 42.48,95.73 98.6,121.24 183.75,156.33 -1.56,17.32 -1.88,31.71 -0.04,39.77 8.41,37.06 46.15,38.38 62.88,61.44 11.03,15.19 -5.44,45.74 -11.6,60.49 -20.12,48.13 -38.87,98.86 -22.23,151.04 1.73,13.64 6.67,27.45 20.74,32.74 17.91,6.71 34.15,-7.3 44.24,-4.03 8.64,2.88 17.75,6.68 26.63,10.3 -0.57,26.26 2.63,51.72 14.87,72.62 22.89,39.06 75.51,22.86 87.58,38.86 4.78,6.33 3.33,48.77 3.37,57.69 0.09,17.48 0.95,34.89 3.77,51.85 -7.51,13.79 -13.16,27.05 -15.73,38.98 -5.97,27.78 18.79,46.85 19.77,65.7 0.93,18.12 -52.59,72.47 -61.93,97.29 -5.3,14.05 -5.86,28.68 1.38,42.17 8.24,15.32 20.43,21.76 32.24,28.87 -3.02,23.34 -2.46,46.21 5.93,66.42 12.5,30.13 44.22,33.96 64.63,40.28 1.45,10.47 0.84,23.93 -0.07,30.78 -2.13,16.03 2.9,31.73 8.96,46.58 -23.16,18.33 -41.69,42.06 -63.92,63.15 -5.31,5.05 -19.65,16.78 -23.71,22.65 -3.76,5.44 -7.23,12.63 -11.12,18.53 -22.63,34.3 2.27,77.17 31.68,98 6.43,4.55 15.34,14.81 16.19,23.02 1.39,13.57 -17.95,40.24 -25.04,51.59 -7.49,11.99 -14.63,24.56 -18.88,38.12 -7.42,23.69 -0.9,52.4 11.2,73.43 16.55,28.77 43.96,46.7 76.34,52.48 5.38,9.39 2.28,30.57 16.67,44.21 11.08,10.49 23.89,15.95 39.08,16.75 3.95,0.21 10.86,-0.47 15.75,-0.48 0.37,3.64 0.24,8.61 0.14,10.76 -0.78,18.08 5.09,41.06 13.02,57.2 9.51,19.36 25.33,58.8 44.43,70.15 3.23,126.3 4.67,252.66 8.57,379 -152.04,23.28 -312.42,87.36 -451.17,149.61 -180.88,81.17 -357.12,175.32 -531.9,268.79 -101.92,54.51 -203.76,109.41 -306.42,162.58 l -57.74,-51.57 53.26,-243.15 c 44.71,-23.89 89.46,-47.72 134.25,-71.42 148.55,-78.59 297.7,-156.16 449.24,-228.84 127.57,-61.19 257.33,-120.25 391.19,-166.4 l 58.04,-20.01 -3.28,-61.29 c -22.05,-412.05 -61.9,-827.88 -173,-1226.61 -200.83,-720.69 -590.6,-1307.68 -1094.79,-1838.796 40.55,-5.441 81.09,-12.352 121.87,-20.551 44.29,-8.902 88.23,-19.25 132.13,-29.734" /><path
         id="path94"
         style="fill:#e1242e;fill-opacity:1;fill-rule:evenodd;stroke:none"
         d="m 1573.18,3894.84 c 29.82,-397.71 52.43,-815.03 160.1,-1199.93 191.95,-686.14 622.42,-1355.75 1146.36,-1846.117 27.58,1.734 55.24,2.785 82.99,3.102 34.36,0.386 68.33,-0.379 102.09,-2.25 520.36,535.205 922.07,1123.355 1125.55,1853.545 107.6,386.15 146.94,791.73 168.7,1190.97 -132.07,46.45 -262.46,105.67 -388.46,166.11 -152.66,73.22 -303.12,151.45 -452.76,230.62 -19.76,10.45 -39.52,20.93 -59.25,31.42 l 57.43,-262.22 -555.5,328.95 -555.5,-328.95 57.24,261.33 c -35.9,-19.46 -71.87,-38.76 -107.94,-57.93 -253.6,-134.69 -513.7,-263.28 -781.05,-368.65" /><path
         id="path96"
         style="fill:#3a3995;fill-opacity:1;fill-rule:evenodd;stroke:none"
         d="m 1573.18,3894.84 c 29.82,-397.71 52.43,-815.03 160.1,-1199.93 86.47,-309.1 221.36,-614.84 391.38,-902.34 V 4144.6 c -180.45,-90.74 -364.18,-175.94 -551.48,-249.76 z M 2690.13,1038.33 c 61.56,-65.701 124.83,-128.99 189.51,-189.537 27.58,1.734 55.24,2.785 82.99,3.102 34.36,0.386 68.33,-0.379 102.09,-2.25 56.85,58.472 112.27,117.593 166.18,177.445 v 3201.79 l -270.47,160.16 -270.3,-160.06 z m 1106.24,747.15 c 167.4,282.06 301.22,585.14 393.9,917.71 107.6,386.15 146.94,791.73 168.7,1190.97 -132.07,46.45 -262.46,105.67 -388.46,166.11 -58.34,27.98 -116.37,56.69 -174.14,85.9 V 1785.48" /><path
         id="path98"
         style="fill:#f0c716;fill-opacity:1;fill-rule:evenodd;stroke:none"
         d="m 2521.39,4591.78 -517.93,-266.72 c -82.37,-41.81 -165.08,-83.06 -248.89,-121.92 -116.58,-54.05 -240.25,-106.92 -364.19,-141.28 l -9.06,-2.5 -5.01,18.1 9.05,2.51 c 122.92,34.07 245.69,86.61 361.31,140.21 83.61,38.77 166.09,79.91 248.24,121.61 l 531.69,273.8 -5.21,-23.81" /><path
         id="path100"
         style="fill:#f0c716;fill-opacity:1;fill-rule:evenodd;stroke:none"
         d="m 3392.19,4625.05 550.04,-283.25 c 82.18,-41.71 164.66,-82.85 248.28,-121.62 115.62,-53.6 238.38,-106.14 361.31,-140.21 l 9.04,-2.51 -5.01,-18.1 -9.06,2.5 c -123.94,34.36 -247.61,87.23 -364.18,141.28 -83.82,38.86 -166.52,80.11 -248.93,121.93 l -536.28,276.17 -5.21,23.81" /><path
         id="path102"
         style="fill:#f0c716;fill-opacity:1;fill-rule:evenodd;stroke:none"
         d="m 1349.75,4025.22 c 1.21,-214.47 20.27,-427.24 40.03,-640.41 -6.02,-2.93 -12.02,-6.02 -18.01,-9.26 -20.05,216.23 -39.58,432.01 -40.8,649.57 l -0.05,9.39 18.78,0.1 0.05,-9.39" /><path
         id="path104"
         style="fill:#f0c716;fill-opacity:1;fill-rule:evenodd;stroke:none"
         d="m 4604.57,4025.12 c -0.83,-146.89 -10,-292.94 -22.04,-438.89 -6.69,-1.43 -13.15,-3.39 -19.33,-5.87 12.31,147.93 21.74,295.98 22.58,444.86 l 0.05,9.39 18.78,-0.1 -0.04,-9.39" /><path
         id="path106"
         style="fill:#f0c716;fill-opacity:1;fill-rule:evenodd;stroke:none"
         d="m 4388.85,2486.32 -8.44,-24.53 c -6.08,1.61 -12.7,2.61 -19.61,0.73 l 10.28,29.89 3.04,8.88 17.77,-6.09 z m -51.33,-145.83 c -31.39,-86.39 -64.57,-172.21 -100.66,-256.73 -9.72,-5.22 -18.95,-10.76 -27.73,-16.83 44.55,102.36 84.62,206.77 122.24,311.88 0.68,-12.89 2.91,-25.67 6.15,-38.32 z m -383.5,-783.94 c -16.49,-26.46 -33.27,-52.73 -50.39,-78.78 -0.82,0.64 -1.68,1.33 -2.54,2.12 -3.68,3.4 -9.3,4.92 -15.3,4.94 43.59,66.21 85.07,133.8 124.73,202.42 -15.27,-36.23 -30.77,-72.42 -46.79,-108.26 -3.43,-7.49 -6.69,-14.96 -9.71,-22.44 z M 3765.16,1280.8 c -123.4,-165.79 -255.94,-323.519 -395.71,-475.706 -7.07,1.586 -14.14,3.144 -21.22,4.676 146.22,158.707 284.57,323.43 412.85,497.04 1.71,-9.29 3.24,-18.23 4.08,-26.01" /><path
         id="path108"
         style="fill:#f0c716;fill-opacity:1;fill-rule:evenodd;stroke:none"
         d="m 1580.43,2439.63 5.85,-16.74 c -1.64,-1.34 -3.26,-2.71 -4.87,-4.08 -0.23,6.93 -0.57,13.89 -0.98,20.82 z m 308.12,-692.16 c 8.22,-14.74 16.52,-29.42 24.9,-44.06 l -5.57,-8.75 c -5.01,14.14 -11.79,32.57 -19.33,52.81 z m 130.83,-219.31 c 34.6,-54.14 70.54,-107.44 107.97,-159.7 141.13,-197.01 295.22,-382.417 459.18,-560.288 -7.14,-1.457 -14.29,-2.938 -21.43,-4.457 -161.64,175.91 -313.64,359.225 -453.01,553.815 l -3.18,4.43 c -18.51,27.03 -36.93,54.22 -52.65,83.45 -12.97,24.13 -25.44,52.52 -36.88,82.75" /><path
         id="path110"
         style="fill:#231f20;fill-opacity:1;fill-rule:evenodd;stroke:none"
         d="m 1351.79,4125.19 c 42.59,0 77.14,-34.55 77.14,-77.14 0,-42.6 -34.55,-77.15 -77.14,-77.15 -42.6,0 -77.14,34.55 -77.14,77.15 0,42.59 34.54,77.14 77.14,77.14" /><path
         id="path112"
         style="fill:#f0c716;fill-opacity:1;fill-rule:evenodd;stroke:none"
         d="m 1351.79,4106.41 c 32.22,0 58.35,-26.14 58.35,-58.36 0,-32.23 -26.13,-58.36 -58.35,-58.36 -32.23,0 -58.36,26.13 -58.36,58.36 0,32.22 26.13,58.36 58.36,58.36" /><path
         id="path114"
         style="fill:#231f20;fill-opacity:1;fill-rule:evenodd;stroke:none"
         d="m 1995.93,4409.36 c 42.59,0 77.14,-34.54 77.14,-77.14 0,-42.59 -34.55,-77.14 -77.14,-77.14 -42.6,0 -77.15,34.55 -77.15,77.14 0,42.6 34.55,77.14 77.15,77.14" /><path
         id="path116"
         style="fill:#f0c716;fill-opacity:1;fill-rule:evenodd;stroke:none"
         d="m 1995.93,4390.58 c 32.22,0 58.35,-26.14 58.35,-58.36 0,-32.22 -26.13,-58.36 -58.35,-58.36 -32.23,0 -58.36,26.14 -58.36,58.36 0,32.22 26.13,58.36 58.36,58.36" /><path
         id="path118"
         style="fill:#231f20;fill-opacity:1;fill-rule:evenodd;stroke:none"
         d="m 4583.99,4125.19 c 42.6,0 77.15,-34.55 77.15,-77.14 0,-42.6 -34.55,-77.15 -77.15,-77.15 -42.59,0 -77.14,34.55 -77.14,77.15 0,42.59 34.55,77.14 77.14,77.14" /><path
         id="path120"
         style="fill:#f0c716;fill-opacity:1;fill-rule:evenodd;stroke:none"
         d="m 4583.99,4106.41 c 32.22,0 58.36,-26.14 58.36,-58.36 0,-32.23 -26.14,-58.36 -58.36,-58.36 -32.22,0 -58.35,26.13 -58.35,58.36 0,32.22 26.13,58.36 58.35,58.36" /><path
         id="path122"
         style="fill:#231f20;fill-opacity:1;fill-rule:evenodd;stroke:none"
         d="m 3938.25,4409.36 c 42.6,0 77.15,-34.54 77.15,-77.14 0,-42.59 -34.55,-77.14 -77.15,-77.14 -42.59,0 -77.14,34.55 -77.14,77.14 0,42.6 34.55,77.14 77.14,77.14" /><path
         id="path124"
         style="fill:#f0c716;fill-opacity:1;fill-rule:evenodd;stroke:none"
         d="m 3938.25,4390.58 c 32.23,0 58.36,-26.14 58.36,-58.36 0,-32.22 -26.13,-58.36 -58.36,-58.36 -32.22,0 -58.36,26.14 -58.36,58.36 0,32.22 26.14,58.36 58.36,58.36" /><path
         id="path126"
         style="fill:#231f20;fill-opacity:1;fill-rule:evenodd;stroke:none"
         d="m 1869.61,3909.43 341.72,77.78 32.12,-102.96 163.5,134.49 362.97,26.4 239.21,-181.33 -18.36,-882.72 15.86,-242.13 -202.3,-206.76 -419.81,-18.93 -92.09,78.72 -15.88,-259.2 -406.93,-40.66 -113.41,144.3 -199.97,-39.66 -375.6,185.71 371.77,1252.97 317.2,73.98" /><path
         id="path128"
         style="fill:#f0c716;fill-opacity:1;fill-rule:evenodd;stroke:none"
         d="m 1596.1,2977.23 102.87,15.48 202.01,885.33 274.73,62.54 -152.4,-903.75 51.09,3.3 119.53,753.55 222.65,186.76 341.76,26.14 200.88,-155.88 -0.3,-298.86 -324.1,-1.76 3.5,204.5 -134.19,-6.29 -74.72,-680.66 191.59,8.1 17.6,306.38 322.87,10.63 -7.9,-393.16 -242.53,-191.37 -444.1,-29.48 -159.36,134.28 -49.03,-370.99 -323.55,-25.71 29.42,204.2 -530.72,-90.83 346.6,1176.94 237.19,52.24 -221.39,-881.63" /><path
         id="path130"
         style="fill:#ffffff;fill-opacity:1;fill-rule:evenodd;stroke:none"
         d="m 1602.52,3782.36 -329.02,-1117.28 524.33,89.74 -29.91,-207.62 265.68,21.1 52.78,399.41 190.03,-160.11 424.04,28.15 225.21,177.71 7.04,350.14 -267.44,-8.8 -17.6,-306.15 -249.84,-10.56 80.93,737.23 190.03,8.8 -3.52,-200.58 h 263.92 l 1.76,249.84 -182.99,140.76 -323.74,-24.63 -204.1,-170.67 -121.41,-765.38 -109.09,-7.04 151.32,897.34 -216.42,-49.26 -202.34,-886.79 -163.63,-24.63 218.17,874.47 -174.19,-35.19" /><path
         id="path132"
         style="fill:#231f20;fill-opacity:1;fill-rule:evenodd;stroke:none"
         d="m 3372.1,3784.47 100.36,244.41 374.66,-66.91 -42.94,-123.2 122.92,102.43 451.06,-126.22 393.38,-1241.74 -319.31,-182.86 -486.38,76.59 -474.76,51.12 -72.42,126.45 -14.74,-122.37 -462.2,13.43 17.53,1514.01 395.91,-15.63 16.93,-249.51" /><path
         id="path134"
         style="fill:#f0c716;fill-opacity:1;fill-rule:evenodd;stroke:none"
         d="m 3345.56,3620.88 150.14,365.68 301.44,-53.83 -168.34,-483.07 305.19,-496.28 -148.67,820.76 150.67,125.56 412.49,-115.43 367.66,-1160.56 -291.64,63.3 -57.44,231.5 -104.78,9.12 42.68,-225.9 -309.31,46.2 -337.52,29.35 -285.15,494.57 29.63,-475.48 -388.62,8.27 -16.62,1205.87 322.6,-12.74 z m 737.84,29.55 105.61,-439.27 115.18,-15.96 -128.97,428.84 -91.82,26.39" /><path
         id="path136"
         style="fill:#ffffff;fill-opacity:1;fill-rule:evenodd;stroke:none"
         d="m 3025.95,3981.18 15.84,-1148.95 330.78,-7.04 -35.19,564.8 337.83,-585.91 323.74,-28.15 270.96,-40.47 -42.22,223.45 161.87,-14.07 58.07,-234.01 226.97,-49.27 -348.38,1099.69 -383.57,107.32 -126.69,-105.57 172.44,-951.88 -390.61,635.18 161.87,464.5 -246.33,43.99 -184.74,-468.03 -35.2,483.86 z m 1018.75,-290.32 121.41,-504.97 177.7,-24.63 -146.03,485.62 -153.08,43.98" /><path
         id="path138"
         style="fill:#ffffff;fill-opacity:1;fill-rule:evenodd;stroke:none"
         d="m 2966.13,2472.7 c 356.24,0 645.14,-288.9 645.14,-645.14 0,-356.24 -288.9,-645.14 -645.14,-645.14 -356.24,0 -645.14,288.9 -645.14,645.14 0,356.24 288.9,645.14 645.14,645.14" /><path
         id="path140"
         style="fill:#231f20;fill-opacity:1;fill-rule:evenodd;stroke:none"
         d="m 2966.13,2482.09 c 361.43,0 654.53,-293.1 654.53,-654.53 0,-361.43 -293.1,-654.53 -654.53,-654.53 -361.43,0 -654.53,293.1 -654.53,654.53 0,361.43 293.1,654.53 654.53,654.53 z m 453.76,-514.66 -234.73,-83.09 c -9.3,-82.57 -34.44,-162.65 -78.51,-239.72 l 144.51,-198.9 c 60.82,2.1 124.45,23.54 185.64,67.39 56.4,84.24 90.81,184.44 94.95,292.39 -22.99,69.24 -61.5,124.74 -111.86,161.93 z m -239.61,-68.22 233.94,82.82 c 17.85,58.84 19.31,123.51 -3.58,195.92 -64.03,81.11 -149.75,144.29 -248.43,180.75 -72.78,-0.42 -137.34,-19.74 -188.25,-55.91 v -254.95 c 76.64,-34.09 145.9,-82.68 206.32,-148.63 z m 56.58,-460.43 -144.27,198.57 c -79.23,-15.86 -160.83,-16.69 -245.25,0.32 l -145.79,-206.39 c 21.29,-56.28 58.63,-107.56 119.04,-150.8 46.46,-12.34 95.21,-18.96 145.54,-18.96 53.25,0 104.77,7.39 153.63,21.14 59.35,43.56 97.88,95.67 117.1,156.12 z m -545.7,4.9 142.89,202.3 c -41.44,72.68 -68.42,152.74 -78.08,241.62 l -242.56,78.81 c -49.3,-37.14 -88.71,-88.73 -112.84,-161.05 4.29,-110.92 40.53,-213.65 99.75,-299.27 61.25,-42.54 126.89,-63.89 190.84,-62.41 z m -174.54,538.15 246.81,-80.2 c 53.92,58.39 118.23,106.36 194.87,142 v 257.41 c -50.65,35.49 -112.04,57.04 -188.48,57.57 -98.66,-36.5 -184.34,-99.7 -248.33,-180.83 -21.97,-69.21 -23.51,-136.47 -4.87,-195.95 z m 902.67,210.35 c 34.27,-8.97 66,-22.37 94.37,-41.42 -87.45,147.83 -233.06,257.18 -405.31,296.57 26.02,-23.33 50.29,-49.69 66.91,-76.85 96.35,-37.16 180.31,-99.22 244.03,-178.3 z m 180.14,-308.5 c -14.16,-31.97 -31.73,-63.18 -52.45,-87.38 -5.6,-105.63 -39.43,-203.78 -94.03,-287.1 2.04,-35.24 -0.89,-69.42 -10.16,-102.18 98.97,112.09 159.09,259.29 159.09,420.54 0,18.91 -0.83,37.63 -2.45,56.12 z m -384.09,-641.11 c -34.78,3.57 -69.91,10.64 -99.34,22.85 -47.82,-12.73 -98.04,-19.56 -149.87,-19.56 -49.84,0 -98.2,6.32 -144.38,18.11 -32.78,-13.32 -66.18,-21.56 -100.29,-23.31 75.33,-31.45 157.96,-48.85 244.67,-48.85 88.46,0 172.69,18.1 249.21,50.76 z m -722.54,160.7 c -7.8,34.02 -12.41,69.46 -10.34,101.18 -56.92,85.03 -92.06,185.89 -97.31,294.57 -22.41,27.36 -40.16,56.79 -51.91,88.82 -1.86,-19.84 -2.85,-39.95 -2.85,-60.28 0,-163.06 61.45,-311.76 162.41,-424.29 z m -71.98,751.15 c 30.26,17.54 62.86,32.49 93.85,39.87 64.07,78.77 148.32,140.45 244.87,177.16 19.12,29.76 41.66,55.72 68.51,76.77 -172.61,-38.25 -318.84,-146.67 -407.23,-293.8" /><path
         id="path142"
         style="fill:#f0c716;fill-opacity:1;fill-rule:nonzero;stroke:none"
         d="m 2984.36,526.07 v 38.305 l 29.35,0.07 c 17.86,0.043 33.45,7.801 33.45,33.071 v 83.929 c 0,21.629 -19.87,31.774 -38.3,31.774 h -24.79 v 37.66 h -34.34 v -37.66 h -25.28 c -17.88,0 -37.85,-10.035 -37.85,-31.774 0,-29.738 0,-55.023 0,-84.75 0,-24.644 16.94,-32.324 35.04,-32.324 l 28.09,0.004 V 526.07 Z m 0,58.313 v 108.656 l 12.44,0.055 c 9.05,0.039 15.73,-0.867 15.73,-15.914 v -80.719 c 0,-9.375 -6.18,-11.926 -12.25,-11.965 z m -34.63,108.656 V 584.383 l -14.71,-0.016 c -7.95,-0.004 -13.79,4.434 -13.79,12.094 v 82.383 c 0,10.836 5.43,14.187 13.82,14.187 l 14.68,0.008" /><path
         id="path144"
         style="fill:#f0c716;fill-opacity:1;fill-rule:evenodd;stroke:none"
         d="m 1366.13,2069.09 c 12.12,2.56 24.92,5.79 32.42,25.59 l 22.62,-3.24 56.37,-224.51 -35.87,4.82 -42.97,176.83 -27.61,-0.28 -4.96,20.79" /><path
         id="path146"
         style="fill:#f0c716;fill-opacity:1;fill-rule:evenodd;stroke:none"
         d="m 4483.42,2057.08 c 14.84,4.7 31.39,11.85 48.96,37.57 l 22.28,4.26 -66.48,-222.47 -33.74,-6.87 48.84,171.11 -26.8,-6.26 6.94,22.66" /><path
         id="path148"
         style="fill:#f0c716;fill-opacity:1;fill-rule:evenodd;stroke:none"
         d="m 4331.21,2000.09 c 14.86,4.69 31.44,11.84 49.15,37.56 l 22.29,4.26 -67.6,-222.46 -33.77,-6.88 49.7,171.11 -26.83,-6.25 7.06,22.66" /><path
         id="path150"
         style="fill:#f0c716;fill-opacity:1;fill-rule:evenodd;stroke:none"
         d="m 1624.52,1984.34 35.75,-137.74 c 7.79,-29.97 -8.34,-40.6 -27.27,-38.48 l -14.52,1.62 c -28.01,3.14 -45.71,30.71 -48.96,43.92 l -4.74,19.22 34.45,-7.13 4.68,-18.86 c 1.5,-5.99 8.05,-13.78 16.75,-15.33 6.56,-1.16 11.98,1.08 9.19,12.25 l -12.5,49.92 c -5.28,-1.71 -12.48,-1.35 -20.4,-0.34 -29.1,3.73 -41.11,18.2 -47.74,46.36 l -15.31,64.89 c -6.89,29.22 8.55,37.47 29.84,35.63 l 9.42,-0.82 c 29.67,-2.56 43.93,-26.5 51.36,-55.11 z m -15.47,-61.22 -21.13,77.78 c -1.92,7.11 -5.68,14.23 -15.66,15.79 -11.2,1.76 -8.66,-8.22 -7.1,-14.26 l 19.33,-74.98 c 2.19,-8.47 8.45,-12.56 13.99,-13.52 4.59,-0.8 14.16,-4.04 10.57,9.19" /><path
         id="path152"
         style="fill:#f0c716;fill-opacity:1;fill-rule:evenodd;stroke:none"
         d="m 2779.68,734.141 35.34,-218.411 -34.82,-3.144 -31.65,195.57 -39.66,-3.476 31.78,-195.907 -34.83,-3.14 -35.48,218.871 109.32,9.637" /><path
         id="path154"
         style="fill:#f0c716;fill-opacity:1;fill-rule:evenodd;stroke:none"
         d="m 3187.18,736.633 -34.89,3.879 -30.83,-222.133 34.9,-3.887 16.05,115.703 26.38,-119.769 34.89,-3.887 -27.5,122.082 59.65,97.41 -34.89,3.883 -58.18,-97.23 14.42,103.949" /></g></g></svg>